<mxfile host="app.diagrams.net" modified="2023-11-30T21:52:32.279Z" agent="Mozilla/5.0 (Windows NT 10.0; Win64; x64) AppleWebKit/537.36 (KHTML, like Gecko) Chrome/119.0.0.0 Safari/537.36" etag="ax9-5bul95ks6Hgq4V_v" version="22.1.5" type="device">
  <diagram name="Страница — 1" id="Y-HNPyT7XDatMFkKcdQl">
    <mxGraphModel dx="916" dy="494" grid="0" gridSize="10" guides="1" tooltips="1" connect="1" arrows="1" fold="1" page="1" pageScale="1" pageWidth="827" pageHeight="1169" math="0" shadow="0">
      <root>
        <mxCell id="0" />
        <mxCell id="1" parent="0" />
        <mxCell id="wUKDdbYhqXpO1KORFXpz-1" value="&lt;font style=&quot;font-size: 11px;&quot;&gt;Пользователь&lt;/font&gt;" style="shape=umlActor;verticalLabelPosition=bottom;verticalAlign=top;html=1;outlineConnect=0;" vertex="1" parent="1">
          <mxGeometry x="392" y="30" width="30" height="60" as="geometry" />
        </mxCell>
        <mxCell id="wUKDdbYhqXpO1KORFXpz-2" value="Просмотр списка научных сотрудников" style="ellipse;whiteSpace=wrap;html=1;" vertex="1" parent="1">
          <mxGeometry x="111" y="167" width="140" height="50" as="geometry" />
        </mxCell>
        <mxCell id="wUKDdbYhqXpO1KORFXpz-3" value="Просмотр статей определённого сотрудника" style="ellipse;whiteSpace=wrap;html=1;" vertex="1" parent="1">
          <mxGeometry x="332" y="167" width="150" height="60" as="geometry" />
        </mxCell>
        <mxCell id="wUKDdbYhqXpO1KORFXpz-4" value="Просмотр содержимого определённой статьи" style="ellipse;whiteSpace=wrap;html=1;" vertex="1" parent="1">
          <mxGeometry x="584" y="169" width="150" height="50" as="geometry" />
        </mxCell>
        <mxCell id="wUKDdbYhqXpO1KORFXpz-6" value="" style="endArrow=classic;html=1;rounded=0;" edge="1" parent="1">
          <mxGeometry width="50" height="50" relative="1" as="geometry">
            <mxPoint x="470" y="113" as="sourcePoint" />
            <mxPoint x="604" y="161" as="targetPoint" />
          </mxGeometry>
        </mxCell>
        <mxCell id="wUKDdbYhqXpO1KORFXpz-7" value="" style="endArrow=classic;html=1;rounded=0;" edge="1" parent="1">
          <mxGeometry width="50" height="50" relative="1" as="geometry">
            <mxPoint x="404" y="117" as="sourcePoint" />
            <mxPoint x="404" y="159" as="targetPoint" />
          </mxGeometry>
        </mxCell>
        <mxCell id="wUKDdbYhqXpO1KORFXpz-9" value="&lt;b&gt;Администратор&lt;/b&gt;" style="shape=umlActor;verticalLabelPosition=bottom;verticalAlign=top;html=1;outlineConnect=0;" vertex="1" parent="1">
          <mxGeometry x="392" y="336" width="30" height="60" as="geometry" />
        </mxCell>
        <mxCell id="wUKDdbYhqXpO1KORFXpz-13" value="&lt;b&gt;Добавление нового научного сотрудника&lt;/b&gt;" style="ellipse;whiteSpace=wrap;html=1;" vertex="1" parent="1">
          <mxGeometry x="145" y="439" width="140" height="51" as="geometry" />
        </mxCell>
        <mxCell id="wUKDdbYhqXpO1KORFXpz-14" value="" style="endArrow=classic;html=1;rounded=0;" edge="1" parent="1">
          <mxGeometry width="50" height="50" relative="1" as="geometry">
            <mxPoint x="473" y="437" as="sourcePoint" />
            <mxPoint x="506" y="507" as="targetPoint" />
          </mxGeometry>
        </mxCell>
        <mxCell id="wUKDdbYhqXpO1KORFXpz-15" value="" style="endArrow=classic;html=1;rounded=0;" edge="1" parent="1">
          <mxGeometry width="50" height="50" relative="1" as="geometry">
            <mxPoint x="457" y="318" as="sourcePoint" />
            <mxPoint x="590" y="234" as="targetPoint" />
          </mxGeometry>
        </mxCell>
        <mxCell id="wUKDdbYhqXpO1KORFXpz-17" value="&lt;b&gt;Удаление научного сотрудника из списка( автоматически базы данных)&lt;/b&gt;" style="ellipse;whiteSpace=wrap;html=1;" vertex="1" parent="1">
          <mxGeometry x="184" y="510" width="242" height="67" as="geometry" />
        </mxCell>
        <mxCell id="wUKDdbYhqXpO1KORFXpz-18" value="" style="endArrow=classic;html=1;rounded=0;" edge="1" parent="1">
          <mxGeometry width="50" height="50" relative="1" as="geometry">
            <mxPoint x="406" y="309" as="sourcePoint" />
            <mxPoint x="406" y="245" as="targetPoint" />
          </mxGeometry>
        </mxCell>
        <mxCell id="wUKDdbYhqXpO1KORFXpz-19" value="&lt;b&gt;Определения наименования статьи&lt;/b&gt;" style="ellipse;whiteSpace=wrap;html=1;" vertex="1" parent="1">
          <mxGeometry x="546" y="434" width="181" height="61" as="geometry" />
        </mxCell>
        <mxCell id="wUKDdbYhqXpO1KORFXpz-20" value="&lt;b&gt;Добавление текста статьи&lt;/b&gt;" style="ellipse;whiteSpace=wrap;html=1;" vertex="1" parent="1">
          <mxGeometry x="584" y="361" width="130" height="50" as="geometry" />
        </mxCell>
        <mxCell id="wUKDdbYhqXpO1KORFXpz-21" value="&lt;b&gt;Авторизация&lt;/b&gt;" style="ellipse;whiteSpace=wrap;html=1;" vertex="1" parent="1">
          <mxGeometry x="119" y="365" width="110" height="50" as="geometry" />
        </mxCell>
        <mxCell id="wUKDdbYhqXpO1KORFXpz-22" value="" style="endArrow=classic;html=1;rounded=0;" edge="1" parent="1">
          <mxGeometry width="50" height="50" relative="1" as="geometry">
            <mxPoint x="336" y="310" as="sourcePoint" />
            <mxPoint x="218" y="237" as="targetPoint" />
          </mxGeometry>
        </mxCell>
        <mxCell id="wUKDdbYhqXpO1KORFXpz-23" value="&lt;b&gt;Добавление статьи&lt;/b&gt;" style="ellipse;whiteSpace=wrap;html=1;" vertex="1" parent="1">
          <mxGeometry x="474" y="518.5" width="120" height="50" as="geometry" />
        </mxCell>
        <mxCell id="wUKDdbYhqXpO1KORFXpz-24" value="" style="endArrow=classic;html=1;rounded=0;" edge="1" parent="1">
          <mxGeometry width="50" height="50" relative="1" as="geometry">
            <mxPoint x="341" y="109" as="sourcePoint" />
            <mxPoint x="225" y="153" as="targetPoint" />
          </mxGeometry>
        </mxCell>
        <mxCell id="wUKDdbYhqXpO1KORFXpz-26" value="" style="endArrow=classic;html=1;rounded=0;" edge="1" parent="1">
          <mxGeometry width="50" height="50" relative="1" as="geometry">
            <mxPoint x="342" y="424" as="sourcePoint" />
            <mxPoint x="290" y="450" as="targetPoint" />
          </mxGeometry>
        </mxCell>
        <mxCell id="wUKDdbYhqXpO1KORFXpz-27" value="" style="endArrow=classic;html=1;rounded=0;" edge="1" parent="1">
          <mxGeometry width="50" height="50" relative="1" as="geometry">
            <mxPoint x="320" y="381.5" as="sourcePoint" />
            <mxPoint x="239" y="388.5" as="targetPoint" />
          </mxGeometry>
        </mxCell>
        <mxCell id="wUKDdbYhqXpO1KORFXpz-28" value="" style="endArrow=classic;html=1;rounded=0;" edge="1" parent="1">
          <mxGeometry width="50" height="50" relative="1" as="geometry">
            <mxPoint x="374" y="439" as="sourcePoint" />
            <mxPoint x="347" y="498" as="targetPoint" />
          </mxGeometry>
        </mxCell>
        <mxCell id="wUKDdbYhqXpO1KORFXpz-33" value="" style="endArrow=classic;html=1;rounded=0;" edge="1" parent="1">
          <mxGeometry width="50" height="50" relative="1" as="geometry">
            <mxPoint x="473" y="377" as="sourcePoint" />
            <mxPoint x="575" y="385" as="targetPoint" />
          </mxGeometry>
        </mxCell>
        <mxCell id="wUKDdbYhqXpO1KORFXpz-34" value="" style="endArrow=classic;html=1;rounded=0;" edge="1" parent="1">
          <mxGeometry width="50" height="50" relative="1" as="geometry">
            <mxPoint x="473" y="403" as="sourcePoint" />
            <mxPoint x="544" y="438" as="targetPoint" />
          </mxGeometry>
        </mxCell>
      </root>
    </mxGraphModel>
  </diagram>
</mxfile>
